<?xml version="1.0" encoding="UTF-8"?>
<svg width="31px" height="31px" viewBox="0 0 31 31" version="1.1" xmlns="http://www.w3.org/2000/svg" xmlns:xlink="http://www.w3.org/1999/xlink">
    <!-- Generator: Sketch 43.2 (39069) - http://www.bohemiancoding.com/sketch -->
    <title>2</title>
    <desc>Created with Sketch.</desc>
    <defs></defs>
    <g id="Page-2" stroke="none" stroke-width="1" fill="none" fill-rule="evenodd">
        <g id="2.0-Refer/Pending" transform="translate(-536.000000, -616.000000)">
            <g id="2" transform="translate(537.000000, 617.000000)">
                <circle id="Oval" stroke="#273B49" fill="#FFDC24" cx="14.5" cy="14.5" r="14.5"></circle>
                <path d="M11.4565,9.5 C11.4565,10.604 10.5605,11.5 9.4565,11.5 C8.3525,11.5 7.4565,10.604 7.4565,9.5 C7.4565,8.396 8.3525,7.5 9.4565,7.5 C10.5605,7.5 11.4565,8.396 11.4565,9.5 L11.4565,9.5 Z" id="Stroke-215" stroke="#273B49" stroke-linecap="round" stroke-linejoin="round"></path>
                <path d="M18.9565,9.5 C18.9565,10.604 19.8525,11.5 20.9565,11.5 C22.0605,11.5 22.9565,10.604 22.9565,9.5 C22.9565,8.396 22.0605,7.5 20.9565,7.5 C19.8525,7.5 18.9565,8.396 18.9565,9.5 L18.9565,9.5 Z" id="Stroke-216" stroke="#273B49" stroke-linecap="round" stroke-linejoin="round"></path>
                <circle id="Oval-2" fill="#273B49" cx="21.4565" cy="9.5" r="2"></circle>
                <circle id="Oval-2" fill="#273B49" cx="9.4565" cy="9.5" r="2"></circle>
                <path d="M5,20.3894043 C5,17.5745184 9.277,15 14.5,15 C19.723,15 24,16.9756957 24,19.7905816" id="Stroke-202" stroke="#273B49" stroke-linecap="round" stroke-linejoin="round"></path>
            </g>
        </g>
    </g>
</svg>