<?xml version="1.0" encoding="UTF-8"?>
<svg width="31px" height="31px" viewBox="0 0 31 31" version="1.1" xmlns="http://www.w3.org/2000/svg" xmlns:xlink="http://www.w3.org/1999/xlink">
    <!-- Generator: Sketch 43.2 (39069) - http://www.bohemiancoding.com/sketch -->
    <title>3</title>
    <desc>Created with Sketch.</desc>
    <defs></defs>
    <g id="Page-2" stroke="none" stroke-width="1" fill="none" fill-rule="evenodd">
        <g id="2.0-Refer/Pending" transform="translate(-580.000000, -616.000000)">
            <g id="3" transform="translate(581.000000, 617.000000)">
                <circle id="Oval" stroke="#273B49" fill="#FFDC24" cx="14.5" cy="14.5" r="14.5"></circle>
                <path d="M11,10 C11,11.104 10.104,12 9,12 C7.896,12 7,11.104 7,10 C7,8.896 7.896,8 9,8 C10.104,8 11,8.896 11,10 L11,10 Z" id="Stroke-215" stroke="#273B49" stroke-linecap="round" stroke-linejoin="round"></path>
                <path d="M19,10 C19,11.104 19.896,12 21,12 C22.104,12 23,11.104 23,10 C23,8.896 22.104,8 21,8 C19.896,8 19,8.896 19,10 L19,10 Z" id="Stroke-216" stroke="#273B49" stroke-linecap="round" stroke-linejoin="round"></path>
                <circle id="Oval-2" fill="#273B49" cx="21" cy="9" r="2"></circle>
                <circle id="Oval-2" fill="#273B49" cx="9" cy="10" r="2"></circle>
                <path d="M7,18.55 L22.0300007,18.55" id="Line" stroke="#273B49" stroke-width="1.1" stroke-linecap="round" stroke-linejoin="bevel"></path>
            </g>
        </g>
    </g>
</svg>