<?xml version="1.0" encoding="UTF-8"?>
<svg width="31px" height="31px" viewBox="0 0 31 31" version="1.1" xmlns="http://www.w3.org/2000/svg" xmlns:xlink="http://www.w3.org/1999/xlink">
    <!-- Generator: Sketch 43.2 (39069) - http://www.bohemiancoding.com/sketch -->
    <title>4</title>
    <desc>Created with Sketch.</desc>
    <defs></defs>
    <g id="Page-2" stroke="none" stroke-width="1" fill="none" fill-rule="evenodd">
        <g id="2.0-Refer/Pending" transform="translate(-624.000000, -616.000000)">
            <g id="4" transform="translate(625.000000, 617.000000)">
                <circle id="Oval" stroke="#273B49" fill="#FFDC24" cx="14.5" cy="14.5" r="14.5"></circle>
                <path d="M5,16 L24,16 C24,16 23.123291,25.2431641 14.5,25.2431641 C5.87670898,25.2431641 5,16 5,16 Z" id="Rectangle" fill="#FFFFFF"></path>
                <path d="M23.913,16 C23.913,20.983 19.679,25.218 14.457,25.218 C9.234,25.218 5,20.983 5,16 L23.913,16 L23.913,16 Z" id="Stroke-214" stroke="#273B49" stroke-linecap="round" stroke-linejoin="round"></path>
                <path d="M18,9 C18,10.104 18.896,11 20,11 C21.104,11 22,10.104 22,9 C22,7.896 21.104,7 20,7 C18.896,7 18,7.896 18,9 L18,9 Z" id="Stroke-216" stroke="#273B49" stroke-linecap="round" stroke-linejoin="round"></path>
                <path d="M7,9 C7,10.104 7.896,11 9,11 C10.104,11 11,10.104 11,9 C11,7.896 10.104,7 9,7 C7.896,7 7,7.896 7,9 L7,9 Z" id="Stroke-216-Copy" stroke="#273B49" stroke-linecap="round" stroke-linejoin="round"></path>
                <circle id="Oval-2" fill="#273B49" cx="20" cy="9" r="2"></circle>
                <circle id="Oval-2-Copy" fill="#273B49" cx="9" cy="9" r="2"></circle>
            </g>
        </g>
    </g>
</svg>