<?xml version="1.0" encoding="UTF-8"?>
<svg width="29px" height="29px" viewBox="0 0 29 29" version="1.1" xmlns="http://www.w3.org/2000/svg" xmlns:xlink="http://www.w3.org/1999/xlink">
    <!-- Generator: Sketch 43.2 (39069) - http://www.bohemiancoding.com/sketch -->
    <title>5</title>
    <desc>Created with Sketch.</desc>
    <defs>
        <polygon id="path-1" points="2.18403145e-05 0 13.9700971 5.81353147e-15 13.9700971 11.9620909 2.18403145e-05 11.9620909 2.18403145e-05 5.81353147e-15"></polygon>
    </defs>
    <g id="Page-2" stroke="none" stroke-width="1" fill="none" fill-rule="evenodd">
        <g id="2.0-Refer/Pending" transform="translate(-669.000000, -617.000000)">
            <g id="5" transform="translate(669.000000, 617.000000)">
                <circle id="Oval" fill="#D0011B" cx="14.5" cy="14.5" r="14.5"></circle>
                <g id="Page-1" transform="translate(8.000000, 9.000000)">
                    <mask id="mask-2" fill="white">
                        <use xlink:href="#path-1"></use>
                    </mask>
                    <g id="Clip-2"></g>
                    <path d="M12.1266437,0.333497727 C10.5450515,-0.528184091 8.36356602,0.346384091 6.97545922,2.19179318 C5.56091553,0.366225 3.36726505,-0.476843182 1.79804175,0.407270455 C0.121575728,1.35158864 -0.671395146,3.63738409 0.698430097,6.05204318 C2.11168252,8.54374773 6.27729417,11.4414068 7.04477961,11.9621114 C7.8046534,11.4306341 11.9286728,8.473725 13.3063136,5.96204318 C14.6416146,3.52788409 13.8164301,1.25381591 12.1266437,0.333497727" id="Fill-1" fill="#FFFFFF" mask="url(#mask-2)"></path>
                </g>
            </g>
        </g>
    </g>
</svg>