<?xml version="1.0" encoding="UTF-8"?>
<svg width="49px" height="50px" viewBox="0 0 49 50" version="1.1" xmlns="http://www.w3.org/2000/svg" xmlns:xlink="http://www.w3.org/1999/xlink">
    <!-- Generator: Sketch 43.2 (39069) - http://www.bohemiancoding.com/sketch -->
    <title>Compolete Icon</title>
    <desc>Created with Sketch.</desc>
    <defs></defs>
    <g id="Page-2" stroke="none" stroke-width="1" fill="none" fill-rule="evenodd">
        <g id="2.2-Refer/Pending" transform="translate(-582.000000, -601.000000)">
            <g id="Compolete-Icon" transform="translate(584.000000, 603.000000)">
                <ellipse id="Oval-4" stroke="#0EA218" stroke-width="3" cx="22.7553191" cy="23" rx="22.7553191" ry="23"></ellipse>
                <ellipse id="Oval-1" fill="#0EA218" cx="23.3297872" cy="22.5376344" rx="19.3297872" ry="19.5376344"></ellipse>
                <path d="M31.6416315,14.0535774 C31.5153903,13.9621129 31.3411105,13.9903427 31.2517362,14.1185059 L19.8224409,30.2207729 L15.4766163,25.828219 C15.3676914,25.7181229 15.1911772,25.7181229 15.0816937,25.828219 C14.9727688,25.9383151 14.9727688,26.117292 15.0816937,26.2273881 L19.6598914,30.8553784 C19.7129574,30.9084504 19.7833397,30.9383739 19.857632,30.9383739 C19.8648937,30.9383739 19.872714,30.9378093 19.8799756,30.9372447 C19.9620882,30.9304696 20.0369392,30.8881249 20.0844193,30.8203735 L31.7053107,14.4471005 C31.7952436,14.3206311 31.7667555,14.1444773 31.6416315,14.0535774" id="Imported-Layers" fill="#FFFFFF"></path>
            </g>
        </g>
    </g>
</svg>